<svg width="16" height="10" viewBox="0 0 16 10" fill="none" xmlns="http://www.w3.org/2000/svg">
<path fill-rule="evenodd" clip-rule="evenodd" d="M0.842756 0.0126111C1.38816 -0.0743138 1.90076 0.297355 1.98768 0.842756C2.1878 2.09839 2.85674 2.86043 3.63828 3.33363C4.45293 3.82688 5.39039 4.00015 6.00009 4.00015H12.5859L10.293 1.70725C9.90252 1.31673 9.90252 0.683565 10.293 0.293041C10.6836 -0.0974837 11.3167 -0.0974836 11.7073 0.293041L15.7073 4.29304C16.0978 4.68357 16.0978 5.31673 15.7073 5.70726L11.7073 9.70726C11.3167 10.0978 10.6836 10.0978 10.293 9.70726C9.90252 9.31673 9.90252 8.68357 10.293 8.29304L12.5859 6.00015H6.00009C5.09176 6.00015 3.7819 5.75862 2.60241 5.04447C1.38981 4.31027 0.317784 3.07231 0.0126111 1.15754C-0.0743138 0.612138 0.297355 0.0995361 0.842756 0.0126111Z" fill="#1868DB"/>
</svg>
