<svg width="60" height="6" viewBox="0 0 60 6" fill="none" xmlns="http://www.w3.org/2000/svg">
<path d="M2.4821 6C2.4821 6 2.47472 5.9755 2.47184 5.96267L2.41063 5.67501C2.38819 5.56601 2.32598 5.48729 2.22398 5.43884C2.12198 5.39039 2.04956 5.31571 2.00672 5.21478C1.94552 5.07146 1.99346 5.00484 2.15054 5.01494C2.26274 5.02099 2.36575 4.99677 2.45959 4.94227C2.51616 4.90896 2.56143 4.85956 2.58948 4.80056C2.61753 4.74155 2.62705 4.67568 2.6168 4.61155C2.60655 4.54743 2.577 4.48804 2.53203 4.44116C2.48706 4.39428 2.42875 4.36208 2.36473 4.34879C1.46305 4.15703 0.693978 3.80377 0.0574973 3.28903C0.0343755 3.27004 0.0171611 3.24497 0.00784511 3.2167C-0.00147093 3.18843 -0.00251532 3.15813 0.00484789 3.1293C0.0122111 3.10047 0.0276769 3.07429 0.0494479 3.0538C0.0712189 3.0333 0.0984082 3.01933 0.127872 3.01349C0.497979 2.94228 0.86774 2.86389 1.23832 2.78533C1.97074 2.63006 2.70635 2.47412 3.4541 2.37158C8.96618 1.6146 14.4997 1.07261 20.0546 0.7456C28.8001 0.232876 37.0203 -0.0154091 44.7152 0.000739646C48.5157 0.00881404 52.6233 0.163236 57.0378 0.464007C57.7749 0.512458 58.5076 0.640369 59.2396 0.76816C59.3768 0.792107 59.5139 0.816049 59.6511 0.839464C59.7307 0.853633 59.8036 0.892425 59.8593 0.950168C59.9149 1.00791 59.9502 1.08158 59.9601 1.16042C60.0315 1.70544 60.007 2.25249 59.8867 2.80154C59.793 3.2283 59.6842 3.20824 59.6511 3.5C59.1232 3.49586 58.5216 3.50112 58 3.5C32 2.37158 2.4821 6 2.4821 6Z" fill="#1868DB"/>
</svg>
