<svg width="48" height="53" viewBox="0 0 48 53" fill="none" xmlns="http://www.w3.org/2000/svg">
<path d="M44.2917 32.9019C45.2244 31.5397 46.219 31.1209 47.2755 31.6457C48.2524 32.1386 48.2414 32.5945 47.2423 33.0132C41.268 35.5257 35.5324 38.221 29.273 40.471C23.3584 42.5912 17.5167 44.9738 11.7479 47.6188C11.5357 47.7195 11.4009 47.8997 11.3434 48.1594C11.0428 49.4527 11.1135 50.6427 11.5556 51.7293C11.6096 51.8614 11.634 52.008 11.6267 52.1548C11.6193 52.3016 11.5803 52.4435 11.5135 52.5669C11.4467 52.6902 11.3544 52.7907 11.2455 52.8585C11.1367 52.9263 11.0151 52.9591 10.8925 52.9537C9.62826 52.8901 8.3198 52.8716 6.96713 52.8981C5.65424 52.9299 4.63308 52.4926 3.3865 52.1348C3.17432 52.0765 3.02403 51.9281 2.93562 51.6896C2.45378 50.4015 2.2394 49.0605 2.29245 47.6665C2.37202 45.488 2.40076 44.2238 2.37866 43.874C1.82167 35.6052 2.0007 27.1694 1.47024 18.845C1.39952 17.7319 1.10111 16.7513 0.575069 15.9032C-0.0482222 14.9014 -0.167546 14.3051 0.230297 13.2079C0.990623 11.0877 1.69126 8.93834 2.33224 6.75983C2.40739 6.4948 2.5422 6.28277 2.73671 6.12375C3.52797 5.47179 4.3546 4.78538 5.2166 4.06451C5.71612 3.64047 5.85093 3.06272 5.62106 2.33125C5.49729 1.93371 5.59676 1.64747 5.91946 1.47255C7.05111 0.852395 8.12089 0.788797 9.12876 1.28174C13.5537 3.46025 17.3288 5.6202 20.4541 7.76161C26.6207 11.9914 32.8625 16.4491 39.1794 21.1348C40.3994 22.0412 40.9962 23.035 41.9377 24.2594C42.7268 25.2851 43.8143 25.778 44.7691 26.597C44.9459 26.7507 45.1404 26.8302 45.3526 26.8355C45.6443 26.8408 45.8897 26.9441 46.0886 27.1456C46.261 27.3258 46.3096 27.5458 46.2345 27.8055C45.8587 29.0829 45.2818 30.1854 44.5038 31.113C44.358 31.2879 44.2651 31.4973 44.2254 31.7411L44.0662 32.7747C43.9999 33.1776 44.075 33.2199 44.2917 32.9019ZM20.9182 19.8547C20.9044 19.8468 20.8892 19.8432 20.8739 19.8441C20.8586 19.8449 20.8437 19.8503 20.8306 19.8598C20.8175 19.8692 20.8065 19.8824 20.7986 19.8982C20.7908 19.9139 20.7863 19.9318 20.7856 19.9501L20.779 20.1568C20.7702 20.3477 20.8232 20.5067 20.9381 20.6339L25.5532 25.9609C25.6639 26.0892 25.8032 26.1768 25.9547 26.2134C26.1062 26.25 26.2636 26.2341 26.4085 26.1676C26.8417 25.9662 27.0008 25.5448 26.8859 24.9034C26.74 24.0554 26.2007 23.3186 25.268 22.6931C23.9374 21.792 22.4875 20.8459 20.9182 19.8547ZM20.4728 28.7931C20.4045 28.9333 20.5767 29.2343 20.9514 29.6298C21.3261 30.0253 21.8726 30.483 22.4708 30.9021C22.767 31.1097 23.0671 31.3016 23.3537 31.4668C23.6403 31.6319 23.9079 31.7672 24.1413 31.8649C24.3747 31.9626 24.5692 32.0207 24.7138 32.036C24.8584 32.0513 24.9503 32.0234 24.9841 31.954C25.0524 31.8138 24.8802 31.5129 24.5055 31.1174C24.1308 30.7218 23.5843 30.2642 22.986 29.845C22.6898 29.6374 22.3898 29.4456 22.1032 29.2804C21.8166 29.1152 21.549 28.9799 21.3156 28.8822C21.0822 28.7845 20.8876 28.7264 20.743 28.7111C20.5984 28.6958 20.5066 28.7237 20.4728 28.7931Z" fill="white"/>
</svg>
