<svg width="900" height="500" viewBox="0 0 900 500" fill="none" xmlns="http://www.w3.org/2000/svg">
<path fill-rule="evenodd" clip-rule="evenodd" d="M284.623 78.1715C284.59 78.1919 284.552 78.2049 284.514 78.2097C235.438 82.539 187.579 88.8242 140.937 97.0654C136.604 97.8217 131.979 99.2822 127.062 101.447C126.721 101.591 126.427 101.84 126.218 102.163C126.009 102.485 125.893 102.867 125.885 103.259C125.877 103.652 125.978 104.038 126.174 104.37C126.37 104.702 126.654 104.964 126.989 105.124L127.253 105.254C132.562 107.869 137.679 110.389 143.785 109.388C181.225 103.259 218.933 98.8127 256.909 96.0483C257.444 96.0222 257.748 96.296 257.821 96.8698V96.9089C257.87 97.4044 257.651 97.6913 257.164 97.7695C227.477 103.316 197.791 107.626 168.24 111.917C144.433 115.374 120.715 118.818 97.1559 122.884C77.657 126.288 56.1497 131.295 35.9935 139.119C32.3663 140.527 28.7149 141.505 25.039 142.053C24.5597 142.118 24.117 142.365 23.7895 142.752C23.462 143.138 23.2708 143.639 23.2497 144.166C22.8454 156.511 24.9698 167.184 27.1239 178.005C28.4714 184.774 29.8304 191.602 30.5892 198.933C30.7597 200.602 31.636 201.424 33.2183 201.397L38.4765 201.28C41.4707 201.228 41.6412 201.932 38.9877 203.393C34.4599 205.922 33.2913 209.834 35.4822 215.129C35.661 215.554 35.7511 216.016 35.7462 216.482C35.7413 216.948 35.6414 217.408 35.4537 217.829C35.266 218.25 34.9949 218.622 34.6593 218.919C34.3237 219.216 33.9317 219.431 33.5105 219.549C21.8257 222.783 11.2242 226.917 1.70595 231.95C1.07324 232.295 0.568631 232.856 0.276247 233.539C-0.0161378 234.223 -0.0786213 234.987 0.0992886 235.705L0.46446 237.036C0.505587 237.202 0.58156 237.356 0.68666 237.487C0.791762 237.617 0.923296 237.72 1.07111 237.788C1.21892 237.856 1.37918 237.887 1.5398 237.879C1.70043 237.87 1.85719 237.823 1.99813 237.74C6.23386 235.236 10.433 235.184 14.5957 237.583C15.8859 238.313 17.2735 238.6 18.7585 238.444C24.8443 237.766 30.8327 238.665 36.7237 241.143C37.3117 241.389 37.9425 241.502 38.5769 241.475C39.2113 241.448 39.8358 241.282 40.4118 240.987L48.5546 236.605C49.7231 235.979 50.9524 235.849 52.2425 236.214C53.813 236.654 55.4103 236.908 57.0345 236.978C54.6151 238.878 52.18 241.493 49.7294 244.825C48.9858 245.827 48.8659 246.895 49.3696 248.031C50.4011 250.302 52.332 251.905 55.1625 252.84C57.5132 253.619 57.5731 254.51 55.3423 255.512C48.7699 258.429 42.9171 257.972 37.7839 254.143C37.487 253.918 37.1337 253.767 36.757 253.704C36.3803 253.641 35.9924 253.667 35.6296 253.78C35.2667 253.894 34.9407 254.09 34.6819 254.352C34.4232 254.614 34.2401 254.933 34.1498 255.278C31.8711 264.229 30.156 273.536 29.0047 283.199C28.9081 284.009 28.9046 284.806 28.9876 285.59C25.8003 286.696 22.5732 287.646 19.1236 288.126C18.3203 288.256 17.9916 288.752 18.1377 289.612L18.3567 290.747C18.4195 291.044 18.5841 291.304 18.8158 291.472C19.0476 291.64 19.3282 291.703 19.5982 291.647C23.148 290.841 26.6359 290.069 30.0619 289.33C37.1965 304.45 76.0513 313.762 90.1714 316.129C97.4635 317.354 104.144 318.935 110.213 320.872C117.313 323.143 124.533 324.891 131.873 326.115C154.948 329.945 177.124 333.451 198.401 336.635C213.321 338.884 213.285 340.81 198.293 342.413C167.565 345.686 138.361 349.828 110.68 354.837C96.1921 357.465 82.2077 361.116 68.7271 365.792C65.2783 366.988 61.4179 366.943 57.65 366.898C50.0573 366.809 42.8399 366.724 40.1226 376.813C39.8348 377.926 40.1466 378.861 41.0581 379.618C43.7207 381.778 47.1268 383.17 51.2766 383.793C63.7498 385.708 77.0025 387.923 91.0349 390.439C93.4336 390.885 93.4696 391.441 91.1429 392.109C79.5812 395.405 67.8995 397.186 56.0979 397.453C55.5801 397.475 55.078 397.614 54.6378 397.86C54.1977 398.105 53.8336 398.447 53.5793 398.856L48.578 406.938C48.1301 407.645 47.8617 408.439 47.7931 409.26C47.7246 410.082 47.8576 410.909 48.1822 411.68C50.2211 416.601 48.8298 419.362 44.0084 419.963C42.5212 420.141 41.8257 420.932 41.9216 422.334C42.2334 427.5 42.4613 432.91 42.6053 438.566C42.7012 442.284 41.9936 445.791 40.4824 449.086C37.7719 454.964 37.1962 462.278 38.7553 471.028C38.9472 472.142 39.5949 472.921 40.6983 473.366C54.8506 479.111 66.0285 482.595 74.232 483.82C83.8748 485.289 93.2418 486.737 102.333 488.162C112.287 489.742 121.726 490.878 130.649 491.568C228.756 499.205 311.331 501.654 378.375 498.916C469.525 495.22 550.805 489.587 622.214 482.016C679.519 475.96 726.857 469.559 764.229 462.813C788.24 458.493 811.891 451.814 835.183 442.774C835.55 442.622 835.864 442.379 836.087 442.071C836.31 441.764 836.433 441.405 836.442 441.037C836.55 435.76 836.37 431.352 834.175 426.108C828.514 412.504 825.228 398.733 824.317 384.795C824.283 384.315 824.142 383.848 823.902 383.422C823.663 382.997 823.33 382.623 822.925 382.327C822.521 382.03 822.054 381.817 821.556 381.702C821.058 381.586 820.539 381.57 820.035 381.656C817.468 382.079 814.902 382.301 812.335 382.324C806.53 382.346 806.266 381.233 811.544 378.984C811.971 378.802 812.412 378.618 812.862 378.431C818.77 375.971 826.141 372.902 823.165 365.391C821.798 361.895 819.099 360.27 815.07 360.515C799.838 361.495 784.378 363.521 768.691 366.593C748.686 370.534 730.468 372.805 714.036 373.407C713.749 373.429 713.581 373.295 713.533 373.006C713.509 372.739 713.629 372.583 713.893 372.538C760.091 363.922 806.218 355.038 852.273 345.887C867.529 342.859 882.089 339.385 895.954 335.467C896.511 335.308 897.008 335.001 897.385 334.58C897.761 334.159 898.001 333.644 898.076 333.095C901.027 312.055 900.583 290.814 896.745 269.372C896.497 267.988 895.761 266.821 895.009 265.628C894.782 265.266 894.552 264.902 894.335 264.529C893.783 263.55 893.519 262.492 893.543 261.357L893.975 250.736C894.095 247.753 892.56 246.294 889.369 246.361C880.784 246.506 872.239 246.764 863.734 247.137L855.023 243.451C854.688 243.305 854.405 243.048 854.214 242.718C854.023 242.387 853.935 242.002 853.964 241.619C853.993 241.236 854.136 240.876 854.373 240.593C854.61 240.309 854.928 240.118 855.278 240.048C861.486 238.692 867.559 238.196 873.499 238.561C874.594 238.613 875.532 238.261 876.311 237.505C877.455 236.41 877.832 234.962 877.443 233.163C877.175 231.911 877.467 230.842 878.319 229.955C880.924 227.269 883.516 224.556 886.097 221.818C889.22 218.472 889.636 216.114 890.126 213.329C890.404 211.752 890.706 210.038 891.537 207.93C892.341 205.87 891.696 204.957 889.602 205.192C886.924 205.505 884.575 205.036 882.555 203.784C879.439 201.854 879.682 201.032 883.285 201.319C891.294 201.971 896.71 199.063 899.534 192.596C900.167 191.187 900.155 189.792 899.498 188.41L897.307 183.833C896.747 182.607 896.832 181.433 897.562 180.312C898.804 178.408 899.413 176.244 899.388 173.818C899.337 168.692 898.641 163.859 897.948 159.044C897.165 153.607 896.385 148.193 896.54 142.405C896.808 132.234 896.065 121.789 894.313 111.07C894.158 110.066 893.75 109.124 893.133 108.346C892.516 107.567 891.712 106.981 890.807 106.65C886.571 105.111 882.591 104.068 878.867 103.52C855.741 99.9994 834.611 96.7916 815.477 93.8967C813.675 93.6359 812.97 92.5406 813.359 90.6107C813.676 89.1763 813.566 87.7288 813.03 86.2684C812.738 85.4774 812.267 84.7792 811.66 84.2388C811.053 83.6985 810.332 83.3335 809.561 83.1779C808.077 82.9171 806.75 82.2651 805.581 81.2219C804.316 80.1005 804.474 79.266 806.056 78.7183C809.148 77.7012 812.264 77.5577 815.404 78.2879C815.829 78.3882 816.269 78.3857 816.692 78.2805C817.115 78.1753 817.51 77.9702 817.847 77.6805C818.184 77.3908 818.455 77.024 818.639 76.6076C818.823 76.1911 818.915 75.7358 818.909 75.2757V55.5204C818.909 51.165 819.774 44.7233 821.502 36.1952C822.938 29.1015 823.23 22.0339 822.378 14.9923C822.26 13.9737 821.838 13.022 821.174 12.2759C820.511 11.5299 819.641 11.0287 818.69 10.8457C817.054 10.5431 815.417 10.2338 813.78 9.92444C805.045 8.27341 796.302 6.62083 787.507 5.99486C734.828 2.10897 685.812 0.113874 640.461 0.00955611C548.638 -0.199083 450.547 3.0087 346.187 9.63296C279.901 13.8579 213.87 20.8603 148.094 30.6402C139.171 31.965 130.393 33.9798 121.653 35.9858C117.231 37.0008 112.819 38.0135 108.402 38.9335C108.051 39.009 107.726 39.1895 107.467 39.4543C107.207 39.7191 107.022 40.0573 106.934 40.4298C106.847 40.8022 106.859 41.1937 106.97 41.5589C107.081 41.9241 107.287 42.2481 107.563 42.4934C115.158 49.1438 124.335 53.7077 135.095 56.1853C135.859 56.357 136.555 56.773 137.091 57.3787C137.628 57.9844 137.98 58.7516 138.103 59.5801C138.225 60.4086 138.111 61.2597 137.777 62.022C137.442 62.7843 136.902 63.4225 136.227 63.8529C135.107 64.557 133.878 64.8699 132.539 64.7917C130.664 64.6613 130.092 65.5219 130.823 67.3736C131.334 68.6776 132.198 69.6425 133.415 70.2684C134.632 70.8943 135.375 71.9115 135.643 73.3198L136.373 77.0362C136.665 78.4445 137.42 79.4876 138.637 80.1657C147.327 84.9644 157.491 86.777 169.127 85.6034C207.467 81.7175 245.772 78.6009 284.039 76.2537C284.453 76.2277 284.672 76.4363 284.696 76.8797L284.77 77.8577C284.775 77.8988 284.772 77.9407 284.762 77.9807C284.758 77.9967 284.753 78.0123 284.746 78.0274C284.737 78.05 284.725 78.0714 284.71 78.091C284.687 78.1238 284.657 78.1511 284.623 78.1715ZM314.07 75.3518C314.727 75.3877 315.066 75.4406 315.068 75.5073C315.072 75.6421 313.704 75.8253 311.264 76.0165C308.824 76.2078 305.513 76.3915 302.059 76.5272C300.348 76.5944 298.653 76.6478 297.072 76.6843C295.49 76.7209 294.053 76.7399 292.842 76.7402C291.63 76.7405 290.669 76.7222 290.012 76.6863C289.355 76.6503 289.016 76.5975 289.014 76.5307C289.01 76.3959 290.379 76.2128 292.818 76.0215C295.258 75.8303 298.569 75.6465 302.023 75.5108C303.734 75.4436 305.429 75.3903 307.01 75.3537C308.592 75.3171 310.029 75.2982 311.24 75.2978C312.452 75.2975 313.413 75.3158 314.07 75.3518ZM284.335 354.502C280.27 354.987 276.499 355.437 273.348 355.939C259.268 358.166 245.391 360.148 231.719 361.884C219.917 363.398 206.148 365.736 190.413 368.898C168.105 373.395 146.757 376.457 126.368 378.082C121.354 378.461 115.37 377.503 108.413 375.21C107.166 374.787 107.046 374.186 108.054 373.406C109.997 371.826 112.143 370.857 114.494 370.501C129.894 368.208 153.857 365.402 186.383 362.085C191.213 361.595 195.915 360.688 200.634 359.777C206.85 358.579 213.095 357.374 219.701 357.108C229.418 356.731 239.772 355.372 249.672 354.074C256.414 353.189 262.946 352.332 268.922 351.831C281.731 350.763 294.84 349.605 308.249 348.358C309.017 348.269 309.472 348.592 309.616 349.327L309.796 350.128C309.844 350.329 309.76 350.451 309.544 350.496C301.688 352.43 292.429 353.535 284.335 354.502Z" fill="white"/>
</svg>
