<svg width="120" height="42" viewBox="0 0 120 42" fill="none" xmlns="http://www.w3.org/2000/svg">
<path d="M37.9352 11.2622C37.9403 11.2615 37.9453 11.2596 37.9498 11.2567C37.9543 11.2538 37.9582 11.2498 37.9614 11.2451C37.9646 11.2404 37.9669 11.235 37.9682 11.2292C37.9696 11.2235 37.9699 11.2174 37.9693 11.2115L37.9595 11.0707C37.9563 11.0068 37.9271 10.9768 37.8719 10.9805C32.7695 11.3185 27.6623 11.7673 22.5502 12.3269C20.9988 12.4959 19.6436 12.2349 18.4849 11.5439C18.3226 11.4462 18.222 11.296 18.1831 11.0932L18.0857 10.558C18.05 10.3552 17.951 10.2088 17.7887 10.1187C17.6264 10.0285 17.5112 9.88957 17.443 9.7018C17.3457 9.43516 17.4219 9.31123 17.6719 9.33C17.8504 9.34127 18.0143 9.29621 18.1636 9.19481C18.2536 9.13284 18.3256 9.04094 18.3702 8.93117C18.4149 8.82139 18.43 8.69884 18.4137 8.57954C18.3974 8.46024 18.3504 8.34975 18.2788 8.26253C18.2073 8.17531 18.1145 8.11541 18.0126 8.09069C16.578 7.73391 15.3544 7.0767 14.3417 6.11906C14.3049 6.08373 14.2775 6.03707 14.2627 5.98448C14.2479 5.93189 14.2462 5.87552 14.2579 5.82189C14.2696 5.76826 14.2942 5.71955 14.3289 5.68142C14.3635 5.64329 14.4068 5.61729 14.4537 5.60643C16.2064 5.2121 17.9542 4.69948 19.7459 4.41219C28.516 3.00388 37.3201 1.99553 46.1583 1.38715C60.0729 0.433252 73.1518 -0.0286678 85.3948 0.00137607C91.4417 0.016398 97.977 0.303692 105.001 0.86326C106.393 0.970291 107.776 1.28575 109.159 1.56177C109.285 1.58814 109.401 1.66031 109.49 1.76773C109.578 1.87516 109.635 2.01222 109.65 2.1589C109.764 3.17288 109.725 4.19062 109.534 5.21211C109.303 6.44016 109.188 7.36776 109.188 7.99493C109.188 8.93005 109.188 9.8783 109.188 10.8397C109.189 10.906 109.176 10.9715 109.152 11.0315C109.127 11.0915 109.091 11.1443 109.046 11.186C109.001 11.2277 108.949 11.2572 108.892 11.2724C108.836 11.2875 108.777 11.2879 108.721 11.2735C108.302 11.1683 107.886 11.189 107.474 11.3354C107.263 11.4143 107.242 11.5345 107.411 11.696C107.567 11.8462 107.744 11.9401 107.942 11.9776C108.044 12 108.14 12.0526 108.221 12.1304C108.302 12.2082 108.365 12.3087 108.404 12.4226C108.475 12.6329 108.49 12.8414 108.448 13.0479C108.396 13.3258 108.49 13.4836 108.73 13.5211C111.281 13.938 114.099 14.3999 117.182 14.9069C117.679 14.9858 118.21 15.136 118.774 15.3576C118.895 15.4053 119.002 15.4897 119.084 15.6018C119.167 15.7139 119.221 15.8494 119.242 15.9941C119.475 17.5376 119.574 19.0417 119.539 20.5063C119.5 22.078 119.904 23.4581 119.918 25.0298C119.922 25.3791 119.841 25.6908 119.675 25.9649C119.578 26.1264 119.566 26.2954 119.641 26.4719L119.933 27.131C120.021 27.3301 120.022 27.531 119.938 27.7338C119.561 28.6651 118.839 29.0839 117.771 28.99C117.291 28.9487 117.259 29.067 117.674 29.3449C117.943 29.5251 118.257 29.5927 118.614 29.5477C118.893 29.5139 118.979 29.6453 118.872 29.942C118.565 30.7813 118.799 31.1869 118.146 31.9418C117.802 32.3361 117.457 32.7267 117.109 33.1135C116.996 33.2412 116.957 33.3952 116.992 33.5754C117.044 33.8346 116.994 34.043 116.841 34.2007C116.738 34.3096 116.613 34.3603 116.467 34.3528C115.675 34.3002 114.865 34.3716 114.037 34.5669C113.99 34.577 113.948 34.6046 113.916 34.6453C113.885 34.6861 113.866 34.738 113.862 34.7931C113.858 34.8483 113.87 34.9038 113.895 34.9514C113.921 34.9989 113.958 35.036 114.003 35.057L116.481 36.1892C116.551 36.2213 116.614 36.2716 116.665 36.3363C116.715 36.4009 116.752 36.4781 116.773 36.5619C116.794 36.6458 116.797 36.734 116.784 36.8198C116.771 36.9056 116.74 36.9867 116.695 37.0568C116.507 37.3534 116.269 37.4511 115.98 37.3497C115.827 37.2971 115.676 37.3009 115.527 37.361C112.08 38.7805 107.873 38.7355 104.319 38.6003C102.622 38.5327 100.923 38.5083 99.2218 38.527C96.9335 38.5496 94.6404 38.4087 92.3959 38.5045C88.157 38.6885 83.7833 38.8049 79.2749 38.8538C78.3239 38.8613 77.3599 38.9533 76.3829 39.1298C75.5261 39.28 74.4971 39.2687 73.2962 39.096C73.1826 39.081 73.1404 39.0096 73.1696 38.8819C73.1826 38.8293 73.2021 38.7787 73.228 38.7298C73.2508 38.6885 73.2848 38.6604 73.3303 38.6453C73.5542 38.5665 73.7506 38.4331 73.9194 38.2454C74.0719 38.0689 74.0411 37.9693 73.8269 37.9468C72.9538 37.8529 72.1667 37.8942 71.4656 38.0707C71.3065 38.1083 71.1491 38.1008 70.9933 38.0482C70.2565 37.8078 69.5425 37.8661 68.8511 38.2228C68.7018 38.3017 68.5476 38.3186 68.3886 38.2735L67.6924 38.0707C67.4911 38.0107 67.4928 37.9524 67.6973 37.8961L68.5103 37.6651C68.5424 37.6566 68.5712 37.6366 68.5923 37.6082C68.6134 37.5797 68.6257 37.5443 68.6272 37.5074L68.6369 37.361C68.6401 37.3055 68.6318 37.25 68.6127 37.1989C68.5937 37.1479 68.5643 37.1029 68.5272 37.0676C68.4901 37.0324 68.4462 37.0079 68.3992 36.9962C68.3522 36.9845 68.3035 36.986 68.2571 37.0004C67.5723 37.2145 66.8436 37.314 66.0711 37.299C65.99 37.2952 65.9413 37.2483 65.9251 37.1582L65.8569 36.854C65.8245 36.6962 65.878 36.6305 66.0176 36.6568C66.7966 36.792 67.6064 36.73 68.447 36.4709C69.2455 36.2287 69.9953 36.4991 70.7986 36.623C70.9674 36.6493 71.1151 36.6005 71.2416 36.4765C71.3001 36.4165 71.3487 36.347 71.3877 36.2681C71.4623 36.1179 71.576 36.0522 71.7285 36.0709C72.6535 36.1949 73.5656 36.1273 74.4647 35.8681C74.9645 35.7254 75.4709 35.6616 75.9837 35.6766C76.0806 35.6795 76.1767 35.6558 76.2641 35.6075C76.3515 35.5591 76.4278 35.4875 76.4867 35.3985C76.5456 35.3095 76.5855 35.2055 76.603 35.0953C76.6205 34.985 76.6151 34.8715 76.5874 34.764C76.4446 34.2232 76.1622 33.9153 75.7403 33.8402C75.7039 33.8346 75.6669 33.8376 75.6316 33.849C75.5964 33.8604 75.5636 33.8799 75.5353 33.9063C75.507 33.9327 75.4838 33.9655 75.4671 34.0025C75.4504 34.0396 75.4407 34.0802 75.4384 34.1219C75.3897 34.7866 75.0587 35.2353 74.4452 35.4682C74.2764 35.532 74.1547 35.4701 74.0801 35.2823L73.5591 33.9585C73.4747 33.7482 73.5088 33.5698 73.6614 33.4233C73.9275 33.1717 74.2083 33.168 74.5036 33.4121C74.6367 33.5172 74.7795 33.5454 74.9321 33.4966C75.0587 33.4515 75.1609 33.3595 75.2388 33.2205C75.255 33.1907 75.2638 33.1562 75.2641 33.1209C75.2645 33.0856 75.2564 33.0509 75.2408 33.0207C75.2252 32.9904 75.2026 32.9656 75.1756 32.9492C75.1487 32.9328 75.1183 32.9253 75.0879 32.9276L72.0255 33.0797C71.9768 33.0797 71.9476 33.1097 71.9379 33.1698L71.9086 33.4177C71.8892 33.5529 71.9379 33.6205 72.0547 33.6205L72.9262 33.643C72.9869 33.6453 73.0456 33.6683 73.095 33.7092C73.1443 33.7501 73.1821 33.807 73.2035 33.8728C73.2249 33.9385 73.2289 34.0102 73.2151 34.0786C73.2012 34.147 73.1702 34.2091 73.1258 34.257L71.8551 35.6147C71.7155 35.7611 71.5613 35.7874 71.3926 35.6935C70.9998 35.4682 70.5957 35.395 70.1803 35.4738C70.1012 35.4892 70.02 35.4693 69.9531 35.418C69.8862 35.3668 69.8386 35.2881 69.82 35.1978L69.4889 33.6374C69.4467 33.4383 69.338 33.3369 69.1627 33.3332C68.4746 33.3144 67.8563 33.4646 67.3078 33.7839C67.1649 33.8665 67.0303 33.8552 66.9037 33.7501C66.4915 33.4196 66.1198 33.5341 65.7887 34.0937C65.6914 34.2664 65.568 34.2946 65.4187 34.1782C65.3149 34.1031 65.2483 33.9979 65.2191 33.8627C65.2016 33.7826 65.1607 33.7118 65.1033 33.6616C65.0458 33.6115 64.9751 33.5851 64.9026 33.5867L64.6592 33.5979C64.4547 33.6055 64.3963 33.7162 64.4839 33.9303C64.5911 34.1857 64.7339 34.4091 64.9124 34.6007C65.0812 34.7847 65.0503 34.8955 64.8199 34.933C64.518 34.9781 64.2097 35.1039 63.8948 35.3105C63.7585 35.4043 63.6157 35.4175 63.4664 35.3499C63.4047 35.3236 63.3431 35.2992 63.2814 35.2767C63.1223 35.2203 63.0006 35.2729 62.9162 35.4344C62.6501 35.9414 62.306 35.9977 61.8841 35.6034C61.6893 35.4194 61.5206 35.4457 61.3777 35.6823C61.1895 35.9902 60.9233 36.1799 60.5793 36.2512C60.4462 36.2813 60.3196 36.27 60.1995 36.2174C59.823 36.0446 59.8376 35.962 60.2434 35.9696C60.8471 35.9771 61.1976 35.5189 61.295 34.595C61.3307 34.2721 61.2236 34.1894 60.9737 34.3472C60.9282 34.3772 60.8811 34.4091 60.8325 34.4429C60.7448 34.5068 60.6767 34.5894 60.628 34.6908C60.4105 35.1452 60.0843 35.2898 59.6494 35.1246C59.6218 35.1157 59.5932 35.1137 59.5655 35.1185C59.5378 35.1234 59.5116 35.135 59.4887 35.1527C59.4076 35.2166 59.3735 35.2954 59.3865 35.3893C59.4059 35.4907 59.3719 35.5452 59.2842 35.5527C58.7454 35.6015 58.5263 35.9395 58.627 36.5667C58.6692 36.8258 58.5848 36.9065 58.3738 36.8089C58.1044 36.6812 57.822 36.6455 57.5266 36.7019C56.4036 36.9159 55.365 36.8821 54.4107 36.6005C54.3673 36.5873 54.3277 36.5606 54.2963 36.5234C54.2649 36.4863 54.2429 36.44 54.2328 36.3898C54.2227 36.3396 54.2249 36.2875 54.2391 36.2392C54.2533 36.1908 54.279 36.1482 54.3133 36.116C54.534 35.9019 54.6541 35.6372 54.6736 35.3217C54.6866 35.1227 54.6055 35.0194 54.4302 35.0119C53.1254 34.9518 51.9212 35.0325 50.8176 35.2541C47.7114 35.8813 44.6783 36.2963 41.7181 36.4991C41.1988 36.5329 40.772 36.6906 40.4377 36.9723C40.3895 37.0113 40.3317 37.0314 40.2729 37.0293C40.2142 37.0273 40.1575 37.0033 40.1115 36.961C40.0303 36.8896 39.9654 36.8014 39.9167 36.6962C39.8356 36.5197 39.7074 36.4484 39.5321 36.4822C38.8343 36.6061 38.1575 36.6136 37.5019 36.5047C36.9225 36.4089 36.4843 36.8258 35.9342 36.899C32.7014 37.3441 29.5319 37.9637 26.3088 38.2172C25.1176 38.3073 23.8615 38.4632 22.5405 38.6848C20.2425 39.0622 17.9007 39.1411 15.5199 39.6312C14.4813 39.8415 13.4475 40.0067 12.4186 40.1269C9.68239 40.4423 6.41389 41.0657 2.6131 41.9971C2.57709 42.0052 2.53968 41.9962 2.50878 41.972C2.47788 41.9478 2.45593 41.9104 2.44756 41.8675L2.41835 41.7042C2.39888 41.5802 2.44271 41.5089 2.54982 41.4901C3.71343 41.3155 4.68715 40.7071 5.86537 40.3973C9.0657 39.556 12.1232 38.8538 15.0379 38.2904C22.844 36.7882 32.3703 35.1659 43.6169 33.4233C45.0905 33.198 46.4569 33.0459 47.7163 32.967C47.9565 32.952 48.161 32.8619 48.3298 32.6966C48.4791 32.5539 48.4596 32.4582 48.2713 32.4093C47.1126 32.1221 46.3385 32.7642 45.2625 32.8431C43.117 32.9971 41.2215 33.1942 39.5759 33.4346C33.2694 34.3434 26.9158 35.3367 20.5151 36.4146C17.8958 36.8596 15.4128 36.7751 12.7642 37.4398C12.219 37.5788 11.7824 37.4098 11.4546 36.9328C11.3475 36.7789 11.2144 36.7357 11.0554 36.8033C10.3445 37.0924 9.58177 37.1882 8.76708 37.0906C8.7031 37.0821 8.6385 37.0946 8.58076 37.1265C8.52303 37.1584 8.47451 37.2084 8.44088 37.2708C8.33377 37.4624 8.20394 37.4868 8.05139 37.344C7.91182 37.2126 7.93129 37.1375 8.10981 37.1187C9.23934 36.9985 10.0995 36.6061 10.6902 35.9414C10.8006 35.8212 10.932 35.7592 11.0846 35.7555C11.685 35.748 12.2433 35.5583 12.7594 35.1865C12.9476 35.0513 13.1489 35.0175 13.3631 35.0851C14.5088 35.4419 15.5556 35.1753 16.5034 34.2852C16.5649 34.2281 16.6049 34.1454 16.6148 34.0541C16.6248 33.9629 16.6041 33.8701 16.5569 33.7951C16.3038 33.4083 16.2551 33.0065 16.4109 32.5896C16.4855 32.3906 16.4287 32.3117 16.2405 32.353C15.9094 32.4319 15.5962 32.5276 15.3008 32.6403C15.0931 32.7192 15.085 32.8206 15.2765 32.9445L15.4615 33.0684C15.5816 33.1435 15.6286 33.2581 15.6027 33.4121C15.5702 33.5961 15.4469 33.7012 15.2327 33.7275C14.6224 33.7989 14.1145 33.6224 13.7088 33.198C13.5854 33.0741 13.441 33.0177 13.2755 33.029C12.9411 33.0553 12.6214 33.1266 12.3163 33.2431C12.0567 33.3407 12.0567 33.4346 12.3163 33.5247C12.4072 33.5585 12.5046 33.5754 12.6084 33.5754C13.2316 33.5867 13.2738 33.7763 12.735 34.1444C12.4526 34.3359 12.12 34.4317 11.737 34.4317C11.5 34.4317 11.401 34.2965 11.44 34.0261L11.4838 33.7275C11.5292 33.4233 11.4351 33.3482 11.2014 33.5022C10.6529 33.859 10.1027 33.9585 9.55093 33.8008C9.36592 33.7482 9.18416 33.7613 9.00564 33.8402C8.29157 34.1519 7.61158 34.2101 6.96567 34.0148C6.79365 33.9622 6.62975 33.981 6.47395 34.0711L5.38824 34.7021C5.31144 34.7446 5.22817 34.7685 5.14358 34.7724C5.059 34.7763 4.9749 34.76 4.8965 34.7246C4.11102 34.3678 3.31257 34.2383 2.50113 34.3359C2.30314 34.3584 2.11812 34.3171 1.94609 34.212C1.39107 33.8665 0.831182 33.874 0.266418 34.2345C0.247625 34.2465 0.226724 34.2533 0.205307 34.2545C0.18389 34.2557 0.162523 34.2513 0.142815 34.2415C0.123106 34.2317 0.105568 34.2169 0.0915547 34.1981C0.0775413 34.1793 0.0674116 34.1571 0.061928 34.1331L0.0132385 33.9416C-0.0104828 33.8382 -0.00215171 33.7281 0.0368329 33.6297C0.0758175 33.5312 0.143099 33.4505 0.22746 33.4008C1.49656 32.676 2.9101 32.0807 4.46807 31.6151C4.52422 31.5981 4.57649 31.5671 4.62124 31.5243C4.66599 31.4815 4.70213 31.428 4.72716 31.3674C4.75219 31.3068 4.76551 31.2406 4.76616 31.1734C4.76682 31.1063 4.7548 31.0397 4.73096 30.9785C4.43885 30.2161 4.59465 29.6528 5.19837 29.2885C5.55215 29.0782 5.52943 28.9768 5.1302 28.9843L4.42911 29.0012C4.21814 29.005 4.10129 28.8867 4.07857 28.6464C3.81566 25.903 3.01233 23.6497 3.09996 20.7598C3.10277 20.6841 3.12827 20.6119 3.17193 20.5563C3.2156 20.5006 3.27463 20.4649 3.33854 20.4556C3.82865 20.3768 4.31551 20.2359 4.79913 20.0331C7.48663 18.9065 10.3543 18.1854 12.9541 17.6954C19.9942 16.3828 27.1414 15.5209 34.2886 14.0788C34.3535 14.0675 34.3827 14.0262 34.3762 13.9549V13.9492C34.3665 13.8666 34.3259 13.8272 34.2545 13.8309C29.1911 14.229 24.1634 14.8693 19.1714 15.7519C18.3437 15.8983 17.6524 15.5209 16.9318 15.1379C16.8872 15.1148 16.8494 15.0771 16.8232 15.0293C16.7971 14.9815 16.7836 14.9259 16.7847 14.8694C16.7857 14.8128 16.8012 14.7579 16.8291 14.7115C16.857 14.665 16.8961 14.6292 16.9416 14.6083C17.5972 14.2966 18.2139 14.0863 18.7916 13.9774C25.0105 12.7907 31.3917 11.8856 37.9352 11.2622ZM42.0091 10.8731C42.0088 10.8634 41.9636 10.8558 41.876 10.8507C41.7884 10.8455 41.6602 10.8428 41.4987 10.8429C41.3372 10.8429 41.1455 10.8457 40.9347 10.8509C40.7238 10.8562 40.4979 10.8639 40.2698 10.8736C39.8092 10.8931 39.3677 10.9196 39.0424 10.9471C38.7171 10.9746 38.5347 11.001 38.5352 11.0204C38.5355 11.03 38.5807 11.0376 38.6683 11.0428C38.7558 11.048 38.884 11.0506 39.0455 11.0506C39.2071 11.0505 39.3987 11.0478 39.6096 11.0425C39.8204 11.0373 40.0464 11.0296 40.2745 11.0199C40.7351 11.0004 41.1766 10.9739 41.5018 10.9464C41.8271 10.9188 42.0096 10.8925 42.0091 10.8731ZM17.2677 32.8487C17.3062 32.9062 17.3595 32.9481 17.4199 32.9684C17.4802 32.9886 17.5446 32.9862 17.6037 32.9614C17.8374 32.8713 17.9494 32.706 17.9396 32.4657C17.9299 32.2103 17.8163 32.1014 17.5988 32.1389L17.1655 32.2178C16.9708 32.2516 16.9334 32.3586 17.0535 32.5389L17.2677 32.8487ZM19.6534 32.7586C19.5268 32.6197 19.4327 32.4563 19.371 32.2685C19.3158 32.0995 19.2201 32.062 19.0838 32.1558L18.7283 32.4037C18.5855 32.5014 18.5417 32.6384 18.5969 32.8149C19.1568 34.6683 21.3671 33.2374 22.4236 32.8375C22.4431 32.83 22.4594 32.8168 22.4723 32.798C22.5113 32.7417 22.5145 32.676 22.4821 32.6009C22.4664 32.5647 22.4411 32.535 22.4098 32.5159C22.3784 32.4967 22.3425 32.489 22.3068 32.4938L19.9991 32.8825C19.9383 32.8931 19.8758 32.8874 19.816 32.866C19.7562 32.8446 19.7007 32.8079 19.6534 32.7586ZM78.8562 32.6797C78.2785 32.4244 77.8987 32.3755 77.7169 32.5333C77.2398 32.9464 77.2999 33.2074 77.8971 33.3163C78.2119 33.3764 78.517 33.3707 78.8124 33.2994C79.4291 33.1492 79.4437 32.9426 78.8562 32.6797ZM85.6459 32.8439C85.6479 32.8122 85.6279 32.779 85.5872 32.7462C85.5465 32.7135 85.4859 32.6818 85.4088 32.653C85.3317 32.6242 85.2396 32.5989 85.1378 32.5784C85.0359 32.558 84.9264 32.5428 84.8154 32.5338C84.7045 32.5249 84.5942 32.5222 84.4909 32.5261C84.3876 32.5299 84.2934 32.5402 84.2136 32.5563C84.1337 32.5724 84.0699 32.594 84.0256 32.6198C83.9814 32.6457 83.9576 32.6754 83.9557 32.7071C83.9538 32.7389 83.9737 32.772 84.0144 32.8048C84.0551 32.8376 84.1158 32.8692 84.1929 32.898C84.27 32.9268 84.3621 32.9522 84.4639 32.9726C84.5657 32.993 84.6752 33.0082 84.7862 33.0172C84.8972 33.0261 85.0075 33.0288 85.1108 33.0249C85.214 33.0211 85.3083 33.0108 85.3881 32.9947C85.4679 32.9787 85.5318 32.9571 85.576 32.9312C85.6203 32.9053 85.644 32.8756 85.6459 32.8439ZM81.2126 34.088C80.4661 34.4936 79.5589 34.642 78.4911 34.5331C77.9458 34.4767 77.618 34.7133 77.5076 35.2429C77.4934 35.3133 77.4968 35.3871 77.5174 35.4554C77.538 35.5238 77.5748 35.5838 77.6236 35.6283C77.6724 35.6729 77.731 35.7001 77.7924 35.7066C77.8538 35.7132 77.9155 35.6989 77.9701 35.6654C78.8335 35.1509 79.7098 34.888 80.5992 34.8767C80.7647 34.873 80.9173 34.8185 81.0568 34.7133C81.4398 34.4129 81.7936 34.0862 82.1182 33.7332C82.2188 33.6205 82.2772 33.4815 82.2935 33.3163C82.3129 33.1172 82.2626 32.952 82.1425 32.8206C81.9705 32.629 81.8521 32.6647 81.7871 32.9276L81.6411 33.5022C81.5762 33.7726 81.4333 33.9679 81.2126 34.088ZM71.4943 33.7163C71.5011 33.6554 71.4914 33.5926 71.4657 33.5315C71.44 33.4705 71.3988 33.4123 71.3445 33.3604C71.2901 33.3084 71.2237 33.2637 71.149 33.2288C71.0743 33.1938 70.9928 33.1694 70.9091 33.1568C70.8254 33.1442 70.7411 33.1438 70.6612 33.1555C70.5813 33.1671 70.5072 33.1907 70.4432 33.2249C70.3791 33.2591 70.3265 33.3031 70.2881 33.3546C70.2498 33.406 70.2265 33.4638 70.2197 33.5247C70.2129 33.5856 70.2226 33.6484 70.2483 33.7095C70.274 33.7705 70.3152 33.8287 70.3696 33.8806C70.4239 33.9326 70.4903 33.9773 70.565 34.0122C70.6397 34.0471 70.7213 34.0716 70.805 34.0842C70.8887 34.0967 70.9729 34.0972 71.0528 34.0855C71.1328 34.0738 71.2068 34.0502 71.2709 34.0161C71.3349 33.9819 71.3876 33.9378 71.4259 33.8864C71.4642 33.835 71.4875 33.7772 71.4943 33.7163ZM17.0827 33.8008C17.06 33.7932 17.0389 33.7932 17.0195 33.8008C16.7955 33.8834 16.7987 33.9491 17.0292 33.9979C17.3018 34.0618 17.5534 34.0711 17.7838 34.0261C17.8552 34.0111 17.8845 33.9622 17.8715 33.8796C17.865 33.8233 17.8487 33.7726 17.8228 33.7275C17.7514 33.5998 17.654 33.5585 17.5307 33.6036C17.4333 33.6411 17.344 33.6956 17.2629 33.767C17.2077 33.812 17.1476 33.8233 17.0827 33.8008ZM62.7264 34.6232C62.9795 34.7171 63.1142 34.6288 63.1305 34.3584C63.1402 34.197 63.0753 34.0993 62.9357 34.0655C62.8026 34.0317 62.6971 34.0636 62.6192 34.1613C62.591 34.1962 62.5709 34.2389 62.5609 34.2854C62.5508 34.3318 62.5512 34.3804 62.5619 34.4267C62.5726 34.4729 62.5934 34.5152 62.6221 34.5496C62.6509 34.584 62.6868 34.6093 62.7264 34.6232ZM57.4 34.7246C56.6925 34.5368 55.9898 34.5274 55.2919 34.6964C55.2675 34.7025 55.2448 34.7158 55.226 34.7349C55.2073 34.754 55.1932 34.7782 55.1853 34.8052C55.1774 34.8321 55.1758 34.8608 55.1809 34.8882C55.1859 34.9156 55.1974 34.9408 55.214 34.9612C55.9508 35.8926 56.6811 35.8813 57.4049 34.9274C57.4371 34.8844 57.4789 34.8525 57.5257 34.8352C57.5725 34.8179 57.6225 34.8158 57.6703 34.8292C57.718 34.8426 57.7617 34.8709 57.7965 34.9111C57.8313 34.9512 57.8558 35.0017 57.8674 35.057C57.9129 35.2522 58.0005 35.4213 58.1303 35.564C58.2504 35.6954 58.3511 35.6785 58.4322 35.5132C58.5718 35.2429 58.7957 35.1058 59.1041 35.102C59.2307 35.0983 59.2988 35.025 59.3086 34.8823L59.3183 34.7359C59.3215 34.7133 59.3134 34.7002 59.294 34.6964C58.8038 34.5688 58.3154 34.5763 57.8285 34.719C57.6857 34.7603 57.5429 34.7622 57.4 34.7246ZM72.376 37.1694C72.5416 37.2821 72.7233 37.3347 72.9213 37.3271C73.1615 37.3196 73.1826 37.2389 72.9846 37.0849C72.8158 36.9535 72.6308 36.8371 72.4296 36.7357C72.342 36.6906 72.2624 36.6775 72.191 36.6962C72.0742 36.7263 72.0044 36.8089 71.9817 36.9441C71.9719 36.9854 71.9817 37.0192 72.0109 37.0455C72.0628 37.0905 72.1261 37.1131 72.2008 37.1131C72.2624 37.1169 72.3208 37.1356 72.376 37.1694ZM79.8483 37.9407C79.8824 37.8652 79.8583 37.7584 79.7813 37.6439C79.7042 37.5294 79.5806 37.4164 79.4376 37.3299C79.3668 37.2871 79.2933 37.252 79.2214 37.2267C79.1495 37.2014 79.0806 37.1864 79.0185 37.1826C78.9565 37.1787 78.9026 37.186 78.8599 37.2042C78.8172 37.2223 78.7865 37.2509 78.7696 37.2882C78.7356 37.3637 78.7597 37.4704 78.8367 37.585C78.9138 37.6995 79.0374 37.8125 79.1804 37.899C79.2512 37.9418 79.3247 37.9769 79.3966 38.0022C79.4685 38.0275 79.5374 38.0425 79.5995 38.0463C79.6615 38.0502 79.7154 38.0429 79.7581 38.0247C79.8008 38.0066 79.8315 37.978 79.8483 37.9407ZM75.2826 38.0707C75.4968 38.3824 75.7451 38.3993 76.0275 38.1214C76.0581 38.0925 76.0807 38.0541 76.0928 38.0106C76.1049 37.9671 76.1058 37.9206 76.0955 37.8765C76.0852 37.8325 76.0641 37.7928 76.0348 37.7623C76.0054 37.7318 75.9691 37.7117 75.9302 37.7046C75.6965 37.6595 75.4498 37.6689 75.1901 37.7327C75.0278 37.7741 75.01 37.8548 75.1366 37.975C75.1788 38.0163 75.2274 38.0482 75.2826 38.0707Z" fill="#CEEBFF"/>
</svg>
