<svg width="180" height="31" viewBox="0 0 180 31" fill="none" xmlns="http://www.w3.org/2000/svg">
<path d="M26.1451 1.88849H41.3731L40.6171 6.002H30.1253L29.2703 10.7105H37.7551L36.9991 14.7621H28.5143L26.8358 23.7184H22.1108L26.1451 1.88849Z" fill="#0055B8"/>
<path d="M43.5688 1.88849H48.107L44.039 23.7099H39.4985L43.5688 1.88849Z" fill="#0055B8"/>
<path d="M63.8055 10.9279L62.7862 16.5086H52.8525L52.2945 19.5324C52.1955 20.0314 52.3597 20.2169 52.8525 20.2169H56.8327C57.3592 20.2169 57.5887 20.0314 57.6877 19.5324L57.9127 18.2231H62.451L62.1877 19.6561C61.6612 22.4283 60.0817 23.7078 57.222 23.7078H51.147C48.285 23.7078 47.2005 22.4283 47.727 19.6561L49.338 10.9279C49.8645 8.15576 51.4102 6.87628 54.2722 6.87628H60.3472C63.225 6.87628 64.332 8.15362 63.8055 10.9279ZM58.6417 10.3671H54.6615C54.1687 10.3671 53.9392 10.5548 53.8717 11.0516L53.4217 13.6106H58.7835L59.2762 11.0516C59.3325 10.5548 59.175 10.3671 58.6417 10.3671Z" fill="#0055B8"/>
<path d="M80.7749 10.9279L79.7534 16.5086H69.8264L69.2662 19.5324C69.1672 20.0314 69.3314 20.2169 69.8264 20.2169H73.7999C74.3264 20.2169 74.5582 20.0314 74.6572 19.5324L74.8822 18.2231H79.4249L79.1617 19.6561C78.6352 22.4283 77.0579 23.7078 74.1959 23.7078H68.1209C65.2612 23.7078 64.1744 22.4283 64.7009 19.6561L66.3119 10.9279C66.8384 8.15576 68.3842 6.87628 71.2462 6.87628H77.3324C80.1854 6.87628 81.3037 8.15362 80.7749 10.9279ZM75.5999 10.3671H71.6354C71.1404 10.3671 70.9109 10.5548 70.8457 11.0516L70.3844 13.6106H75.7462L76.2389 11.0516C76.3042 10.5548 76.1399 10.3671 75.6134 10.3671H75.5999Z" fill="#0055B8"/>
<path d="M83.1803 19.6561L84.8903 10.3671H82.2915L82.9485 6.87631H85.6148L86.3708 2.82465H90.7785L90.0203 6.87631H93.8048L93.15 10.3671H89.4285L87.75 19.4685C87.651 19.9696 87.7815 20.1551 88.308 20.1551H91.3343L90.675 23.7099H86.6003C83.7383 23.7099 82.6538 22.4305 83.1803 19.6561Z" fill="#0055B8"/>
<path d="M94.1218 19.3448L94.6146 16.6024H99.2248L98.7636 19.0334C98.6983 19.5004 98.8311 19.6561 99.3238 19.6561H105.174C105.667 19.6561 105.865 19.5004 105.93 19.0334L106.425 16.4148C106.589 15.6044 106.326 15.4168 105.538 15.2291L99.7806 13.9838C97.0513 13.391 95.4718 12.4911 95.9983 9.61864L96.6238 6.25149C97.1481 3.28951 98.8581 1.88849 101.925 1.88849H108.963C112.023 1.88849 113.206 3.28951 112.68 6.25149L112.23 8.74647H107.608L108 6.56283C108.099 6.09583 107.966 5.94016 107.473 5.94016H102.049C101.587 5.94016 101.392 6.09583 101.293 6.56283L100.865 8.93412C100.732 9.74446 100.93 9.96197 101.72 10.1176L107.509 11.3651C110.239 11.9558 111.818 12.8578 111.292 15.7281L110.635 19.3533C110.074 22.3153 108.364 23.7184 105.304 23.7184H97.8051C94.7473 23.7099 93.5638 22.3068 94.1218 19.3448Z" fill="#0055B8"/>
<path d="M117 1.88849H121.538L120.15 9.33716C121.588 7.7826 122.902 6.71637 126.061 6.71637C129.481 6.71637 130.561 7.99585 130.007 10.8917L127.64 23.7057H123.1L125.404 11.3907C125.501 10.768 125.336 10.5804 124.416 10.5804C122.31 10.5804 121.16 10.8917 119.745 11.5784L117.475 23.7057H112.937L117 1.88849Z" fill="#0055B8"/>
<path d="M131.258 19.4685L132.804 11.1156C133.396 8.02996 134.942 6.75049 138.461 6.75049C141.75 6.75049 142.704 7.81672 143.559 9.36915L144.02 6.8763H148.52L145.395 23.7099H140.895L141.345 21.2149C139.896 22.7738 138.548 23.8336 135.27 23.8336C131.751 23.8336 130.698 22.5563 131.258 19.4685ZM141.784 18.9716L143.134 11.6146C141.95 10.928 140.897 10.6166 138.726 10.6166C137.642 10.6166 137.41 10.8043 137.246 11.6146L135.896 18.9716C135.731 19.7819 135.896 19.9696 136.98 19.9696C139.151 19.9696 140.335 19.6561 141.784 18.9716Z" fill="#0055B8"/>
<path d="M151.913 6.87634H156.454L155.961 9.48859C157.374 7.9319 158.722 6.87207 161.361 6.87207H162.776L162.018 10.9237H159.815C158.323 10.8984 156.849 11.2424 155.54 11.9217L153.337 23.7057H148.79L151.913 6.87634Z" fill="#0055B8"/>
<path d="M164.774 6.8763H169.315L168.865 9.36914C170.311 7.81032 171.628 6.75049 174.917 6.75049C178.47 6.75049 179.521 8.02996 178.929 11.1156L177.372 19.4685C176.814 22.5563 175.268 23.8336 171.715 23.8336C168.426 23.8336 167.506 22.7674 166.651 21.2149L165.269 28.6977L160.495 29.9601L164.774 6.8763ZM172.964 18.9716L174.314 11.6146C174.478 10.8043 174.314 10.6166 173.227 10.6166C171.056 10.6166 169.873 10.928 168.426 11.6146L167.076 18.9716C168.259 19.6561 169.312 19.9696 171.484 19.9696C172.575 19.9696 172.8 19.7819 172.964 18.9716Z" fill="#0055B8"/>
<path d="M14.011 6.45195L3.40674 9.254L4.25049 4.66069L14.857 1.85864L14.011 6.45195Z" fill="#F99D20"/>
<path d="M19.5143 5.64589L16.5488 2.138L15.7051 6.73131L18.6683 10.2392L19.5143 5.64589Z" fill="#F99D20"/>
<path d="M12.7735 13.1863L2.16699 15.9883L3.01074 11.395L13.6172 8.59296L12.7735 13.1863Z" fill="#F99D20"/>
<path d="M18.2744 12.3801L15.3089 8.87439L14.4629 13.4656L17.4284 16.9735L18.2744 12.3801Z" fill="#F99D20"/>
<path d="M11.5333 19.9227L0.926758 22.7226L1.77276 18.1314L12.377 15.3293L11.5333 19.9227Z" fill="#F99D20"/>
<path d="M17.0348 19.1145L14.0693 15.6087L13.2256 20.202L16.1888 23.7099L17.0348 19.1145Z" fill="#F99D20"/>
</svg>
