<svg width="48" height="49" viewBox="0 0 48 49" fill="none" xmlns="http://www.w3.org/2000/svg">
<path d="M25.422 15.6439C25.422 16.3096 25.9725 16.8512 26.6517 16.8512C27.3288 16.8512 27.8772 16.3096 27.8772 15.6439C27.8772 14.9762 27.3288 14.4388 26.6517 14.4388C25.9725 14.4388 25.422 14.9762 25.422 15.6439Z" fill="#D8D8D8"/>
<path fill-rule="evenodd" clip-rule="evenodd" d="M42.1021 42.5082C46.034 38.1803 48 32.1627 48 24.4555C48 16.8669 45.9735 10.9086 41.9206 6.58076C37.9282 2.19359 31.9395 0 23.9546 0C20.0227 0 16.5444 0.592861 13.5198 1.77858C10.5558 2.90502 8.07561 4.53539 6.07939 6.66969C4.08318 8.80399 2.57089 11.3829 1.54253 14.4065C0.514178 17.4301 0 20.8094 0 24.5445C0 28.2795 0.42344 31.6588 1.27032 34.6824C2.17769 37.706 3.569 40.2849 5.44423 42.4192C7.37996 44.4943 9.86011 46.1246 12.8847 47.3103C15.9093 48.4368 19.569 49 23.8639 49C32.0907 49 38.1701 46.8361 42.1021 42.5082ZM9.22233 35.0488C9.22233 35.0488 8.96536 35.1017 8.85943 34.9661C8.75742 34.8517 8.94377 34.5778 8.94377 34.5778L9.19879 34.274L15.4652 26.8376V20.2904C15.4829 17.7498 16.2685 15.8234 17.8241 14.518C19.3688 13.2155 21.5727 12.5589 24.4269 12.5589C26.0452 12.5589 27.4478 12.756 28.6424 13.1549L32.8904 11.315C32.8904 11.315 33.1287 11.2131 33.2523 11.3198C33.3808 11.415 33.2523 11.7226 33.2523 11.7226L31.8164 15.187C32.9149 16.4501 33.469 18.1516 33.4769 20.2904V27.8508C33.469 30.3962 32.6863 32.3197 31.1474 33.6261C30.7541 33.9587 30.3098 34.2509 29.8214 34.5076L16.191 43.1629C16.191 43.1629 16.0959 43.1802 15.9939 43.1629C15.9409 43.1552 15.8791 43.136 15.833 43.0802C15.731 42.9629 15.9213 42.6919 15.9213 42.6919L20.8126 35.54C20.8126 35.54 20.944 35.1814 20.7057 35.0594C20.486 34.9421 20.3026 35.0882 20.3026 35.0882L9.45576 41.9776C9.45576 41.9776 9.1115 42.0497 8.96535 41.87C8.83196 41.7142 9.08403 41.3403 9.08403 41.3403L16.3166 32.165C16.3166 32.165 16.6304 31.7555 16.3332 31.4854C16.0919 31.2614 15.7408 31.4113 15.7408 31.4113L9.75197 34.7508L9.22233 35.0488Z" fill="#D8D8D8"/>
</svg>
