<svg width="123" height="28" viewBox="0 0 123 28" fill="none" xmlns="http://www.w3.org/2000/svg">
<path d="M75.901 5.30051C76.4774 4.76386 76.7656 4.07814 76.7656 3.24334C76.7656 2.42843 76.4774 1.75264 75.901 1.21599C75.3445 0.679337 74.6687 0.411011 73.8737 0.411011C73.0786 0.411011 72.3929 0.679337 71.8165 1.21599C71.26 1.75264 70.9817 2.42843 70.9817 3.24334C70.9817 4.07814 71.26 4.76386 71.8165 5.30051C72.3929 5.83717 73.0786 6.10549 73.8737 6.10549C74.6687 6.10549 75.3445 5.83717 75.901 5.30051Z" fill="#1868DB"/>
<path d="M76.3482 22.8908C76.4277 22.8113 76.4675 22.6523 76.4675 22.4138V7.95397C76.4675 7.71545 76.4277 7.55645 76.3482 7.47694C76.2886 7.39744 76.0898 7.35768 75.7519 7.35768H71.7867C71.3295 7.35768 71.101 7.55645 71.101 7.95397V22.4138C71.101 22.8113 71.3295 23.0101 71.7867 23.0101H75.7519C76.0898 23.0101 76.2886 22.9703 76.3482 22.8908Z" fill="#1868DB"/>
<path d="M68.6087 6.88066C69.0261 6.88066 69.2348 6.65209 69.2348 6.19494V2.85576C69.2348 2.51787 69.1851 2.31911 69.0857 2.25948C69.0062 2.17998 68.8472 2.14022 68.6087 2.14022H52.8967C52.6582 2.14022 52.4892 2.17998 52.3898 2.25948C52.3103 2.31911 52.2706 2.51787 52.2706 2.85576V6.19494C52.2706 6.65209 52.4793 6.88066 52.8967 6.88066H57.8756V22.384C57.8756 22.8014 58.1042 23.0101 58.5613 23.0101H62.7949C63.1328 23.0101 63.3316 22.9703 63.3912 22.8908C63.4707 22.7914 63.5105 22.6225 63.5105 22.384V6.88066H68.6087Z" fill="#1868DB"/>
<path d="M51.7402 15.4969C51.7402 15.9541 51.5415 16.1826 51.1439 16.1826H43.0941C42.6966 16.1826 42.4979 15.9541 42.4979 15.4969V12.5453C42.4979 12.2074 42.5376 12.0087 42.6171 11.949C42.6966 11.8695 42.8556 11.8298 43.0941 11.8298H51.1439C51.3825 11.8298 51.5415 11.8695 51.621 11.949C51.7005 12.0087 51.7402 12.2074 51.7402 12.5453V15.4969Z" fill="#1868DB"/>
<path d="M86.0602 22.8908C86.1397 22.8113 86.1794 22.6523 86.1794 22.4138V11.3528C86.4378 11.313 86.6962 11.2832 86.9546 11.2633C87.2328 11.2435 87.4614 11.2335 87.6403 11.2335C88.7136 11.2335 89.4291 11.4919 89.7869 12.0087C90.1646 12.5056 90.3534 13.2609 90.3534 14.2745V22.4138C90.3534 22.8113 90.582 23.0101 91.0391 23.0101H95.064C95.4019 23.0101 95.6007 22.9703 95.6603 22.8908C95.7398 22.8113 95.7795 22.6523 95.7795 22.4138V14.6323C95.7795 13.559 95.6702 12.5851 95.4516 11.7105C95.5708 11.6708 95.7199 11.631 95.8988 11.5913C96.0777 11.5515 96.2566 11.5217 96.4354 11.5018C96.6342 11.4621 96.823 11.4422 97.0019 11.4422C97.1808 11.4223 97.3199 11.4124 97.4193 11.4124C97.9758 11.4124 98.433 11.4919 98.7908 11.6509C99.1485 11.8099 99.4268 12.0385 99.6255 12.3366C99.8243 12.6348 99.9535 13.0025 100.013 13.4398C100.093 13.877 100.132 14.364 100.132 14.9006V22.4138C100.132 22.8113 100.361 23.0101 100.818 23.0101H104.783C105.121 23.0101 105.32 22.9703 105.38 22.8908C105.459 22.8113 105.499 22.6523 105.499 22.4138V14.3044C105.499 13.2112 105.35 12.2174 105.052 11.323C104.773 10.4087 104.326 9.62355 103.71 8.96764C103.114 8.31174 102.329 7.8049 101.355 7.44713C100.401 7.06948 99.2479 6.88066 97.8963 6.88066C97.4988 6.88066 97.0715 6.91047 96.6143 6.9701C96.1572 7.02973 95.71 7.11917 95.2727 7.23843C94.8354 7.35768 94.418 7.50676 94.0205 7.68564C93.623 7.84465 93.2752 8.02353 92.977 8.22229C92.2615 7.76514 91.4167 7.43719 90.4428 7.23843C89.4689 7.01979 88.3658 6.91047 87.1335 6.91047C86.7956 6.91047 86.398 6.92041 85.9409 6.94029C85.4837 6.96016 85.0266 6.98998 84.5695 7.02973C84.1322 7.04961 83.7148 7.08936 83.3173 7.14899C82.9396 7.18874 82.6514 7.22849 82.4527 7.26824C81.757 7.42725 81.3098 7.70551 81.111 8.10304C80.9123 8.48068 80.8129 8.98752 80.8129 9.62355V22.4138C80.8129 22.8113 81.0415 23.0101 81.4986 23.0101H85.4639C85.8018 23.0101 86.0005 22.9703 86.0602 22.8908Z" fill="#1868DB"/>
<path fill-rule="evenodd" clip-rule="evenodd" d="M121.152 8.63969C119.919 7.48688 118.111 6.91047 115.725 6.91047C113.241 6.91047 111.333 7.63595 110.001 9.0869C108.689 10.5379 108.033 12.5851 108.033 15.2286C108.033 18.0112 108.649 20.0585 109.882 21.3703C111.134 22.6821 113.161 23.338 115.964 23.338C116.381 23.338 116.838 23.3082 117.335 23.2486C117.852 23.1889 118.359 23.0995 118.856 22.9802C119.373 22.8411 119.86 22.6821 120.317 22.5032C120.794 22.3045 121.211 22.0858 121.569 21.8473C121.728 21.7479 121.837 21.6486 121.897 21.5492C121.957 21.4498 121.947 21.3007 121.867 21.102L120.764 18.3889C120.684 18.2299 120.595 18.1305 120.496 18.0907C120.396 18.051 120.207 18.0808 119.929 18.1802C119.333 18.3789 118.747 18.538 118.17 18.6572C117.614 18.7566 117.077 18.8063 116.56 18.8063C116.143 18.8063 115.765 18.7864 115.427 18.7467C115.089 18.687 114.791 18.5777 114.533 18.4187C114.294 18.2597 114.105 18.0411 113.966 17.7628C113.827 17.4646 113.748 17.087 113.728 16.6299H120.973C121.728 16.6299 122.255 16.4212 122.553 16.0038C122.851 15.5864 123 14.8609 123 13.8273C123 11.5217 122.384 9.7925 121.152 8.63969ZM114.503 11.8596C114.94 11.5018 115.407 11.323 115.904 11.323C116.6 11.323 117.067 11.5317 117.306 11.949C117.564 12.3466 117.713 12.8633 117.753 13.4994H113.758C113.837 12.7441 114.086 12.1975 114.503 11.8596Z" fill="#1868DB"/>
<path d="M30.5594 11.2335C30.3805 11.2335 30.1321 11.2434 29.8141 11.2633C29.496 11.2832 29.2078 11.313 28.9495 11.3527V22.4138C28.9495 22.6523 28.9097 22.8113 28.8302 22.8908C28.7706 22.9703 28.5718 23.01 28.2339 23.01H24.2686C23.8115 23.01 23.5829 22.8113 23.5829 22.4138V9.62353C23.5829 8.9875 23.6823 8.48066 23.8811 8.10301C24.0798 7.70549 24.527 7.42723 25.2227 7.26822C25.4215 7.22847 25.7196 7.18872 26.1171 7.14896C26.5146 7.08934 26.942 7.04958 27.3991 7.02971C27.8762 6.98996 28.3532 6.96014 28.8302 6.94027C29.3072 6.92039 29.7147 6.91045 30.0526 6.91045C31.5035 6.91045 32.7756 7.04958 33.8688 7.32785C34.962 7.58624 35.8663 8.03345 36.5819 8.66948C37.3173 9.28564 37.8639 10.1006 38.2216 11.1142C38.5794 12.108 38.7583 13.3304 38.7583 14.7814V22.4138C38.7583 22.6523 38.7185 22.8113 38.639 22.8908C38.5794 22.9703 38.3806 23.01 38.0427 23.01H34.0178C33.5607 23.01 33.3321 22.8113 33.3321 22.4138V14.2745C33.3321 13.2608 33.1334 12.5056 32.7358 12.0087C32.3582 11.4919 31.6327 11.2335 30.5594 11.2335Z" fill="#1868DB"/>
<path d="M11.006 8.67802C11.006 8.97208 11.2443 9.21129 11.5384 9.21129C11.8315 9.21129 12.0689 8.97208 12.0689 8.67802C12.0689 8.38306 11.8315 8.14566 11.5384 8.14566C11.2443 8.14566 11.006 8.38306 11.006 8.67802Z" fill="#1868DB"/>
<path fill-rule="evenodd" clip-rule="evenodd" d="M18.2274 20.5449C19.9296 18.6331 20.7808 15.9749 20.7808 12.5704C20.7808 9.21825 19.9034 6.58628 18.1488 4.6745C16.4203 2.73654 13.8276 1.76756 10.3707 1.76756C8.66847 1.76756 7.16262 2.02944 5.85318 2.55322C4.56993 3.0508 3.49619 3.77099 2.63197 4.71379C1.76774 5.65658 1.11302 6.79579 0.667812 8.13142C0.222604 9.46704 0 10.9598 0 12.6097C0 14.2596 0.183321 15.7523 0.549963 17.088C0.942794 18.4236 1.54513 19.5628 2.35699 20.5056C3.19502 21.4222 4.26876 22.1424 5.5782 22.6662C6.88764 23.1637 8.47205 23.4125 10.3315 23.4125C13.8931 23.4125 16.5251 22.4566 18.2274 20.5449ZM3.99264 17.2498C3.99264 17.2498 3.88139 17.2732 3.83553 17.2133C3.79137 17.1628 3.87205 17.0417 3.87205 17.0417L3.98245 16.9076L6.69539 13.6227V10.7305C6.70303 9.60824 7.04316 8.75729 7.71661 8.18064C8.3854 7.60528 9.33954 7.31526 10.5752 7.31526C11.2758 7.31526 11.883 7.4023 12.4002 7.57852L14.2393 6.76579C14.2393 6.76579 14.3425 6.72078 14.396 6.76791C14.4516 6.80995 14.396 6.94583 14.396 6.94583L13.7743 8.47618C14.2499 9.03414 14.4898 9.78573 14.4932 10.7305V14.0702C14.4898 15.1946 14.151 16.0443 13.4847 16.6214C13.3145 16.7683 13.1221 16.8974 12.9106 17.0107L7.00961 20.8341C7.00961 20.8341 6.96842 20.8417 6.92426 20.8341C6.90133 20.8307 6.87458 20.8222 6.85462 20.7976C6.81046 20.7458 6.89284 20.626 6.89284 20.626L9.01045 17.4668C9.01045 17.4668 9.06735 17.3084 8.96417 17.2545C8.86905 17.2027 8.78965 17.2672 8.78965 17.2672L4.09371 20.3105C4.09371 20.3105 3.94466 20.3424 3.88139 20.263C3.82364 20.1942 3.93277 20.029 3.93277 20.029L7.06397 15.9759C7.06397 15.9759 7.19985 15.795 7.07118 15.6757C6.96673 15.5768 6.81471 15.643 6.81471 15.643L4.22194 17.1182L3.99264 17.2498Z" fill="#1868DB"/>
</svg>
